# xmcd CD database file
#
# Track frame offsets:
#	150
#	38375
#	63600
#	106212
#	158680
#
# Disc length: 2568 seconds
#
# Revision: 0
# Processed by: cddbd v1.5PL3 Copyright (c) Steve Scherf et al.
# Submitted via: CDex 1.51
#
DISCID=320a0605
DTITLE=帝国歌劇団 - 第３回 花組 特別公演 紅蜥蜴 〜サウンドアルバム〜 (Disc2)
DYEAR=1999
DGENRE=Game
TTITLE0=これがレビュウ！（改）
TTITLE1=これがレビュウ！（グランドフィナーレ）
TTITLE2=檄！帝国華撃団（改）
TTITLE3=特別特典：劇場前説録音盤
TTITLE4=愛は永久に (instrumental)
EXTD=YEAR: 1999
EXTT0=
EXTT1=
EXTT2=
EXTT3=
EXTT4=
PLAYORDER=
